<?xml version="1.0" standalone="no"?>
<!DOCTYPE svg PUBLIC "-//W3C//DTD SVG 20010904//EN"
 "http://www.w3.org/TR/2001/REC-SVG-20010904/DTD/svg10.dtd">
<svg version="1.0" xmlns="http://www.w3.org/2000/svg"
 width="207.000000pt" height="173.000000pt" viewBox="0 0 207.000000 173.000000"
 preserveAspectRatio="xMidYMid meet">

<g transform="translate(0.000000,173.000000) scale(0.100000,-0.100000)"
fill="#000000" stroke="none">
<path d="M235 1570 c-11 -4 -40 -29 -65 -54 l-45 -47 0 -599 0 -600 53 -52 52
-53 780 0 780 0 52 53 53 52 0 600 0 600 -53 52 -52 53 -768 2 c-422 1 -776
-2 -787 -7z m106 -176 c7 -8 33 -27 58 -40 64 -35 113 -65 145 -91 16 -13 33
-23 38 -23 5 0 28 -13 51 -29 70 -48 97 -65 141 -91 52 -31 92 -55 159 -97 28
-18 63 -33 77 -33 14 0 49 15 77 33 67 42 107 66 159 97 44 26 71 43 141 91
23 16 46 29 51 29 5 0 22 10 38 23 32 25 80 56 139 88 22 12 50 31 63 42 20
19 24 19 38 6 20 -21 30 -120 15 -156 -7 -15 -26 -38 -44 -51 -73 -51 -137
-92 -145 -92 -5 0 -25 -12 -45 -27 -20 -16 -59 -41 -87 -58 -28 -16 -66 -40
-83 -52 -18 -13 -48 -30 -67 -39 -19 -9 -46 -25 -60 -35 -99 -76 -135 -94
-190 -94 -55 0 -91 18 -190 94 -14 10 -41 26 -60 35 -19 9 -49 26 -67 39 -17
12 -55 36 -83 52 -28 17 -67 42 -87 58 -20 15 -40 27 -45 27 -4 0 -32 16 -61
35 -135 90 -143 102 -134 191 8 75 30 102 58 68z"/>
</g>
</svg>
